<svg display="none" width="0" height="0" version="1.1" xmlns="http://www.w3.org/2000/svg" xmlns:xlink="http://www.w3.org/1999/xlink">
	
	<symbol id="logo" viewBox="0 0 77 89.4">
		<path fill-rule="evenodd" clip-rule="evenodd" fill="#002C5E" d="M0,0h77v77H0V0z"/>
		<path fill-rule="evenodd" clip-rule="evenodd" fill="#FFFFFF" d="M36.6,9.6h10v34.1L77,9.6l0,15.3L36.6,70v0V9.6z"/>
		<path fill-rule="evenodd" clip-rule="evenodd" fill="#2C2C2B" d="M72.2,80.7c-0.7,0-1.3,0.2-1.9,0.5c-0.6,0.3-1.1,0.8-1.4,1.4
			c-0.3,0.6-0.5,1.2-0.5,2c0,1.1,0.4,2,1.1,2.7c0.7,0.7,1.6,1.1,2.7,1.1c0.7,0,1.4-0.2,1.9-0.5c0.6-0.3,1.1-0.8,1.4-1.4
			c0.3-0.6,0.5-1.2,0.5-2c0-0.7-0.2-1.4-0.5-1.9c-0.3-0.6-0.8-1-1.4-1.4C73.5,80.9,72.9,80.7,72.2,80.7z M72.2,79.9
			c1.4,0,2.5,0.5,3.4,1.4c0.9,0.9,1.4,2,1.4,3.4c0,1.3-0.5,2.4-1.4,3.4c-0.9,0.9-2,1.4-3.4,1.4c-1.3,0-2.5-0.5-3.4-1.4
			c-0.9-0.9-1.4-2-1.4-3.3c0-0.9,0.2-1.7,0.6-2.4c0.4-0.7,1-1.3,1.7-1.7C70.5,80.1,71.3,79.9,72.2,79.9z"/>
		<path fill-rule="evenodd" clip-rule="evenodd" fill="#2C2C2B" d="M59.8,80.1h0.9v3.8h4.6v-3.8h0.9v9h-0.9v-4.4h-4.6v4.4h-0.9V80.1z"
			/>
		<path fill-rule="evenodd" clip-rule="evenodd" fill="#2C2C2B" d="M53.7,81V84l1.5,0c0.6,0,1.1-0.1,1.4-0.2c0.3-0.1,0.5-0.3,0.7-0.5
			c0.2-0.3,0.2-0.5,0.2-0.8c0-0.3-0.1-0.6-0.2-0.8c-0.2-0.3-0.4-0.4-0.7-0.5C56.3,81,55.9,81,55.3,81H53.7z M52.8,80.1h1.8
			c1,0,1.7,0,2.1,0.1c0.5,0.1,0.9,0.4,1.3,0.8c0.3,0.4,0.5,0.9,0.5,1.5c0,0.6-0.2,1.1-0.5,1.5c-0.3,0.4-0.8,0.7-1.3,0.8
			c-0.4,0.1-1.2,0.1-2.3,0.1h-0.6v4.2h-0.9V80.1z"/>
		<path fill-rule="evenodd" clip-rule="evenodd" fill="#2C2C2B" d="M45.9,80.1H51V81h-4.3v2.8H51v0.9h-4.2v3.6H51v0.9h-5.1V80.1z"/>
		<path fill-rule="evenodd" clip-rule="evenodd" fill="#2C2C2B" d="M39.7,88.2h1c1,0,1.7,0,2-0.1c0.3-0.1,0.6-0.3,0.7-0.5
			c0.2-0.3,0.3-0.6,0.3-1c0-0.5-0.1-0.8-0.3-1.1c-0.2-0.3-0.5-0.5-0.9-0.5c-0.4-0.1-1-0.1-2-0.1h-0.8V88.2z M38.8,80.1h0.9V84h0.7
			c1.2,0,2,0.1,2.5,0.2c0.5,0.1,0.9,0.4,1.2,0.8c0.3,0.4,0.5,0.9,0.5,1.6c0,0.6-0.2,1.2-0.5,1.6c-0.3,0.4-0.7,0.7-1.2,0.8
			c-0.5,0.1-1.3,0.2-2.4,0.2h-1.8V80.1z"/>
		<path fill-rule="evenodd" clip-rule="evenodd" fill="#2C2C2B" d="M32.8,81V84l1.5,0c0.6,0,1.1-0.1,1.4-0.2c0.3-0.1,0.5-0.3,0.7-0.5
			c0.2-0.3,0.2-0.5,0.2-0.8c0-0.3-0.1-0.6-0.2-0.8c-0.2-0.3-0.4-0.4-0.7-0.5C35.5,81,35,81,34.4,81H32.8z M31.9,80.1h1.8
			c1,0,1.7,0,2.1,0.1c0.5,0.1,0.9,0.4,1.3,0.8c0.3,0.4,0.5,0.9,0.5,1.5c0,0.6-0.2,1.1-0.5,1.5c-0.3,0.4-0.8,0.7-1.3,0.8
			c-0.4,0.1-1.2,0.1-2.3,0.1h-0.6v4.2h-0.9V80.1z"/>
		<path fill-rule="evenodd" clip-rule="evenodd" fill="#2C2C2B" d="M24.6,80.1h5.2V81h-4.3v2.8h4.2v0.9h-4.2v3.6h4.2v0.9h-5.1V80.1z"
			/>
		<path fill-rule="evenodd" clip-rule="evenodd" fill="#2C2C2B" d="M17,81v-0.9h6.1V81h-2.6v8.2h-0.9V81H17z"/>
		<path fill-rule="evenodd" clip-rule="evenodd" fill="#2C2C2B" d="M9.3,80.1h0.9v3.8h4.6v-3.8h0.9v9h-0.9v-4.4h-4.6v4.4H9.3V80.1z"/>
		<path fill-rule="evenodd" clip-rule="evenodd" fill="#2C2C2B" d="M7.1,89.1H6.2v-6.9L0,89.4v-0.2v-9h0.9v7l6-7l0.2-0.2V89.1z"/>
		<path fill-rule="evenodd" clip-rule="evenodd" fill="#D9A348" d="M38.5,9.6h9.6v32.5L77,9.6l0,14.6L38.5,67.4v0V9.6z"/>
	</symbol>

	<symbol id="twitter-icon" viewBox="0 0 16 14">
		<path fill-rule="evenodd" clip-rule="evenodd" d="M5,14c6,0,9.3-5.4,9.3-10.1c0-0.2,0-0.3,0-0.5C15,3,15.6,2.4,16,1.7
			c-0.6,0.3-1.2,0.5-1.9,0.6c0.7-0.4,1.2-1.1,1.4-2c-0.6,0.4-1.3,0.7-2.1,0.9C12.2-0.3,10.2-0.4,8.8,1C8,1.8,7.6,3.1,7.9,4.3
			C5.2,4.2,2.8,2.9,1.1,0.6c-0.9,1.6-0.4,3.7,1,4.7c-0.5,0-1-0.2-1.5-0.4v0c0,1.7,1.1,3.1,2.6,3.5c-0.5,0.1-1,0.2-1.5,0.1
			c0.4,1.4,1.7,2.4,3.1,2.5c-1.2,1-2.6,1.5-4.1,1.5c-0.3,0-0.5,0-0.8-0.1C1.5,13.4,3.2,14,5,14"/>
	</symbol>

	<symbol id="arrow" viewBox="0 0 9.5 14.8">
		<polygon points="0,1.8 1.8,0 9.5,7.4 7.6,9.2 "/>
		<polygon points="1.8,14.8 0,13 7.6,5.6 9.5,7.4 "/>
	</symbol>

	<symbol id="facebook-icon" viewBox="0 0 8 15">
		<path fill-rule="evenodd" clip-rule="evenodd" d="M5.5,15V8.3h2.2l0.4-3H5.5V3.8c0-0.8,0-1.5,1.2-1.5h1.2V0.1c0,0-1-0.1-2-0.1
			C3.7,0,2.3,1.2,2.3,3.5v1.7H0v3h2.3V15H5.5z"/>
	</symbol>

	<symbol id="google-icon" viewBox="0 0 14 14">
		<path fill-rule="evenodd" clip-rule="evenodd" d="M13.9,5.6H7.1c0,0.7,0,2.1,0,2.8H11c-0.1,0.7-0.7,1.7-1.4,2.2c0,0,0,0,0,0
			c-1,0.7-2.3,0.8-3.3,0.6c-1.5-0.3-2.7-1.4-3.2-2.8c0,0,0,0,0,0c-0.3-0.9-0.3-2,0-2.7h0c0.4-1.3,1.6-2.5,3.2-2.8c1.2-0.3,2.6,0,3.6,1
			c0.1-0.1,1.9-1.8,2-2c-3.5-3.2-9.1-2-11.2,2h0c0,0,0,0,0,0c-1,2-1,4.4,0,6.3c0,0,0,0,0,0c0.9,1.8,2.6,3.1,4.5,3.6
			c2.1,0.6,4.8,0.2,6.6-1.5c0,0,0,0,0,0C13.4,10.9,14.4,8.6,13.9,5.6z"/>
	</symbol>

	<symbol id="linkedin-icon" viewBox="0 0 16 16">
		<path fill-rule="evenodd" clip-rule="evenodd" d="M16,16h-3.1v-5.6c0-1.5-0.7-2.4-1.8-2.4c-1.3,0-2,0.9-2,2.4V16H6V5.6h3.1v1.2
			c0,0,1-1.8,3.1-1.8C14.4,5,16,6.4,16,9.2C16,12.1,16,16,16,16z M1.5,3C0.7,3,0,2.3,0,1.5C0,0.7,0.7,0,1.5,0C2.3,0,3,0.7,3,1.5
			C3,2.3,2.3,3,1.5,3z M0,16h3V6H0V16z"/>
	</symbol>

	



	
</svg>